<?xml version="1.0" encoding="utf-8"?>
<svg width="62px" height="59px" viewBox="0 0 62 59" version="1.1" xmlns:xlink="http://www.w3.org/1999/xlink" xmlns="http://www.w3.org/2000/svg">
  <g id="Cognizant_logo">
    <g id="layer1">
      <g id="g5853">
        <g id="Group">
          <path d="M29.0038 0C12.9849 0.00101308 -0.000408044 12.9875 0 29.0064C0.00041508 45.0254 12.9864 58.0112 29.0053 58.0114C45.0243 58.0116 58.0106 45.0262 58.0114 29.0072C58.0141 21.3216 54.9601 13.9423 49.5215 8.5008C44.0828 3.05929 36.7051 0.00140705 29.0117 0" id="path5724" fill="#010101" fill-rule="evenodd" stroke="none" />
          <path d="M4.43201 4.43057C3.55703 5.30624 2.18544 5.44216 1.15561 4.75526C0.125773 4.06837 -0.275683 2.74983 0.196618 1.60556C0.668922 0.461318 1.88353 -0.190173 3.09805 0.0492783C4.31256 0.288758 5.18895 1.35257 5.19155 2.59046C5.2046 3.28265 4.9295 3.94914 4.43202 4.43057M1.01963 1.01547C0.595107 1.42973 0.360066 2.00063 0.36987 2.59373C0.35913 3.1897 0.592754 3.76408 1.01642 4.18338C1.43407 4.60415 2.00238 4.84076 2.59521 4.84076C3.18804 4.84076 3.75634 4.60412 4.17398 4.18338C4.59955 3.7651 4.83465 3.1904 4.82429 2.59376C4.82805 1.69054 4.28563 0.874597 3.45134 0.52852C2.61705 0.182414 1.65634 0.374814 1.01965 1.01547M2.54577 1.15997C2.80882 1.14666 3.0721 1.18147 3.32267 1.26263C3.61366 1.37852 3.79347 1.67231 3.76427 1.98414C3.77985 2.20789 3.67352 2.42263 3.48613 2.54589C3.35988 2.61942 3.21993 2.66636 3.07489 2.68389C3.27012 2.70331 3.44789 2.80484 3.56384 2.96311C3.65904 3.09084 3.71304 3.24454 3.71867 3.40374L3.71867 3.61181C3.71867 3.67811 3.72086 3.74872 3.72518 3.82422C3.72538 3.87434 3.73382 3.92409 3.75016 3.97145L3.7681 4.00677L3.29814 4.00677C3.29595 3.99754 3.29327 3.98834 3.29109 3.97854C3.2889 3.96931 3.28621 3.95899 3.28404 3.947L3.27315 3.85515L3.27315 3.62968C3.30794 3.38001 3.20535 3.13097 3.00478 2.97825C2.82848 2.90466 2.63735 2.87359 2.44682 2.88752L2.05133 2.88752L2.05133 4.00669L1.54932 4.00669L1.54932 1.15995L2.54577 1.15997ZM3.0874 1.60871C2.89625 1.52541 2.68795 1.48908 2.47989 1.50279L2.05135 1.50279L2.05135 2.53393L2.50444 2.53393C2.66634 2.54141 2.82828 2.51994 2.98263 2.4705C3.14241 2.39567 3.25241 2.24385 3.27373 2.06873C3.29505 1.89358 3.2247 1.71981 3.08755 1.60885" transform="translate(56.0851 43.64344)" id="path5748" fill="#FFFFFF" fill-rule="evenodd" stroke="none" />
        </g>
        <path d="M16.9054 12.1434C16.9054 13.5212 16.316 15.0918 14.6475 15.0918C12.9775 15.0918 12.4826 13.5212 12.4826 12.1434L12.4826 7.97209C7.97443 5.90226 3.77388 3.21953 1.40705e-05 0L0 11.6529C0 20.107 6.68502 24.3332 14.6475 24.3332C22.3638 24.3332 29.1347 20.2651 29.3819 12.1229C25.4523 12.0387 21.1974 11.2421 16.9054 9.75361L16.9054 12.1434Z" transform="translate(14.361572 33.474792)" id="path5726" fill="#50B2CE" fill-rule="evenodd" stroke="none" />
        <path d="M2.52544 0C-2.59568 0.00554377 1.09767 5.00583 4.57579 8.83382C5.68808 10.0623 6.87659 11.2196 8.13429 12.2989L8.13429 1.77119C7.84257 1.5968 7.5481 1.43601 7.24865 1.28497C5.60901 0.424394 4.03454 -0.00388346 2.52522 8.44229e-05" transform="translate(18.709816 20.048956)" id="path5730" fill="#50B2CE" fill-rule="evenodd" stroke="none" />
        <path d="M12.4102 12.1848C12.4102 10.8114 12.9046 9.23474 14.5752 9.23474C16.2437 9.23474 16.8331 10.8113 16.8331 12.1848L16.8331 15.3527C19.4274 16.5681 21.9038 18.0209 24.2305 19.6924L29.3211 19.6924L29.3211 12.6781C29.3211 4.22565 22.442 0 14.5753 0C7.08826 0 0.730202 3.73726 0 11.2112C4.23184 11.3617 8.41629 12.154 12.4102 13.5609L12.4102 12.1848Z" transform="translate(14.43412 0.20391083)" id="path5732" fill="#50B2CE" fill-rule="evenodd" stroke="none" />
        <path d="M13.7842 0.00028141L0 0.0209369C0.924118 1.25039 1.56249 2.41573 1.57391 3.29694L6.20162 3.29694L6.20162 13.0119C6.20162 13.1733 6.19461 13.326 6.18967 13.4819C6.43365 13.4883 6.67372 13.4892 6.91768 13.4892C11.7111 13.4819 15.3332 12.5494 16.8408 10.4436C18.3533 8.2791 17.6307 4.87925 13.7843 0" transform="translate(37.553947 32.115837)" id="path5734" fill="#6AB345" fill-rule="evenodd" stroke="none" />
        <path d="M11.1516 0.0146614C10.7941 0.00433371 10.4432 0 10.0916 0C-1.30051 0.0206555 -3.71488 6.43086 6.29569 17.44C7.78992 19.085 9.3877 20.6329 11.0793 22.0742L11.0792 1.48151C11.0792 0.975704 11.1053 0.491651 11.1515 0.0146333" transform="translate(3.2823257 11.400446)" id="path5736" fill="#6AB345" fill-rule="evenodd" stroke="none" />
        <path d="M4.42289 1.79174C2.98124 1.11686 1.50488 0.518779 7.03525e-06 0L0 8.0553C1.3224 8.83354 2.53104 9.79061 3.59167 10.8994L17.4433 10.8793C15.6945 9.1537 13.8146 7.56635 11.8203 6.1315L4.42285 6.13147L4.42289 1.79174Z" transform="translate(26.844124 13.764626)" id="path5738" fill="#6AB345" fill-rule="evenodd" stroke="none" />
        <path d="M4.42291 10.8804L4.42291 3.07063C2.84296 2.20831 1.36017 1.17888 0 0L1.40705e-05 9.09894C1.4734 9.77263 2.9477 10.3664 4.42291 10.8804" transform="translate(26.844109 32.347717)" id="path5740" fill="#6AB345" fill-rule="evenodd" stroke="none" />
        <path d="M12.4831 20.9323C11.2249 19.8533 10.0362 18.696 8.92399 17.4672C5.44643 13.6398 1.75264 8.63939 6.87419 8.6334C8.38342 8.63033 9.95768 9.0588 11.597 9.91882C11.8969 10.0698 12.1908 10.2306 12.4831 10.4045L12.4831 2.34918C8.48901 0.942638 4.30458 0.150554 0.0727796 0C0.0266108 0.477018 0 0.96107 0 1.46688L0 22.0594C3.77397 25.2791 7.97473 27.9619 12.4831 30.0316L12.4831 20.9323Z" transform="translate(14.361275 11.415331)" id="path5742" fill="#74CBF1" fill-rule="evenodd" stroke="none" />
        <path d="M3.51762e-06 4.33973L7.39743 4.33973C5.07077 2.66807 2.59439 1.2153 0 0L3.51762e-06 4.33973Z" transform="translate(31.267006 15.556615)" id="path5744" fill="#74CBF1" fill-rule="evenodd" stroke="none" />
        <path d="M12.4885 0L7.86131 0C7.87219 0.933351 7.1746 1.54834 5.34538 1.54834C3.68454 1.5502 1.87271 1.00128 0 0.00596589L0 7.81514C4.29195 9.30428 8.54696 10.1002 12.4765 10.1849C12.4814 10.029 12.4885 9.87635 12.4885 9.71502L12.4885 0Z" transform="translate(31.26696 35.41283)" id="path5746" fill="#74CBF1" fill-rule="evenodd" stroke="none" />
      </g>
    </g>
  </g>
</svg>